<?xml version="1.0" encoding="UTF-8" standalone="no"?>
<!DOCTYPE svg PUBLIC "-//W3C//DTD SVG 20010904//EN"
              "http://www.w3.org/TR/2001/REC-SVG-20010904/DTD/svg10.dtd">

<svg xmlns="http://www.w3.org/2000/svg"
     width="5.68889in" height="5.68889in"
     viewBox="0 0 512 512">
  <path id="Selection"
        fill="#4b4b4b" stroke="" stroke-width="1"
        d="M 316.00,204.00
           C 309.92,202.86 290.82,193.77 284.00,190.70
             280.73,189.22 274.97,187.35 273.60,183.89
             272.21,180.38 274.19,176.10 275.78,173.00
             275.78,173.00 288.31,149.00 288.31,149.00
             288.31,149.00 327.22,75.00 327.22,75.00
             327.22,75.00 338.69,53.00 338.69,53.00
             340.15,50.30 342.18,45.46 344.39,43.56
             347.48,40.90 352.18,41.19 356.00,40.72
             356.00,40.72 379.00,37.73 379.00,37.73
             379.00,37.73 435.00,28.60 435.00,28.60
             435.00,28.60 472.00,21.17 472.00,21.17
             477.68,20.71 481.11,24.16 477.98,29.72
             477.98,29.72 470.61,38.00 470.61,38.00
             465.46,44.24 462.86,48.01 458.85,55.00
             437.48,92.22 428.81,139.54 426.96,182.00
             426.96,182.00 426.00,195.00 426.00,195.00
             425.96,222.52 427.90,251.01 433.66,278.00
             433.66,278.00 440.34,305.00 440.34,305.00
             442.18,310.75 445.71,319.26 445.96,325.00
             446.45,336.27 434.29,356.11 428.40,366.00
             406.24,403.17 374.95,432.44 340.00,457.42
             323.33,469.33 305.77,479.84 288.00,490.00
             282.37,493.21 272.36,499.87 266.00,498.72
             262.35,498.07 254.56,493.19 251.00,491.15
             251.00,491.15 220.00,472.00 220.00,472.00
             178.72,444.50 139.48,413.21 111.02,372.00
             104.21,362.12 96.13,348.72 90.75,338.00
             87.18,330.87 83.68,325.23 84.04,317.00
             84.29,311.16 87.55,302.92 89.12,297.00
             89.12,297.00 96.39,263.00 96.39,263.00
             96.39,263.00 101.00,218.00 101.00,218.00
             101.00,218.00 101.00,186.00 101.00,186.00
             100.98,173.66 98.15,151.50 96.08,139.00
             92.05,114.64 84.14,83.84 72.68,62.00
             69.10,55.17 63.39,45.92 58.54,40.00
             58.54,40.00 52.14,33.00 52.14,33.00
             50.04,30.49 47.56,25.71 50.02,22.49
             52.17,19.88 58.19,21.68 61.00,22.49
             61.00,22.49 93.00,29.65 93.00,29.65
             119.31,35.60 146.19,39.49 173.00,42.17
             173.00,42.17 201.00,45.00 201.00,45.00
             201.00,45.00 210.00,45.00 210.00,45.00
             210.00,45.00 222.00,46.04 222.00,46.04
             222.00,46.04 235.00,46.04 235.00,46.04
             235.00,46.04 245.00,47.00 245.00,47.00
             245.00,47.00 256.00,47.00 256.00,47.00
             266.38,47.07 264.97,52.78 262.33,61.00
             262.33,61.00 249.67,99.00 249.67,99.00
             249.67,99.00 230.33,157.00 230.33,157.00
             228.52,162.43 222.73,181.40 220.30,185.00
             217.70,188.86 209.89,194.83 206.00,198.08
             206.00,198.08 180.00,220.00 180.00,220.00
             180.00,220.00 211.00,211.14 211.00,211.14
             215.76,209.79 224.37,206.79 229.00,207.12
             233.43,207.43 240.82,211.26 245.00,213.22
             248.47,214.85 253.56,216.04 254.69,220.10
             255.75,223.94 254.32,230.19 253.37,234.00
             253.37,234.00 247.87,256.00 247.87,256.00
             247.87,256.00 231.13,325.00 231.13,325.00
             229.29,332.33 223.47,351.66 224.00,358.00
             224.00,358.00 232.60,342.00 232.60,342.00
             232.60,342.00 249.00,315.00 249.00,315.00
             249.00,315.00 295.20,239.00 295.20,239.00
             295.20,239.00 316.00,204.00 316.00,204.00 Z
           M 463.00,32.00
           C 463.00,32.00 434.00,37.58 434.00,37.58
             434.00,37.58 384.00,45.58 384.00,45.58
             384.00,45.58 361.00,48.58 361.00,48.58
             361.00,48.58 351.39,50.29 351.39,50.29
             351.39,50.29 345.14,60.00 345.14,60.00
             345.14,60.00 333.14,83.00 333.14,83.00
             333.14,83.00 299.74,147.00 299.74,147.00
             299.74,147.00 283.00,180.00 283.00,180.00
             283.00,180.00 314.00,194.23 314.00,194.23
             317.22,195.70 324.21,198.02 325.72,201.21
             327.22,204.36 324.54,208.37 322.94,211.00
             322.94,211.00 309.58,233.00 309.58,233.00
             309.58,233.00 254.80,323.00 254.80,323.00
             254.80,323.00 223.20,375.00 223.20,375.00
             221.12,378.43 215.08,391.59 210.21,389.60
             206.39,388.04 207.91,382.93 208.63,380.00
             208.63,380.00 215.88,350.00 215.88,350.00
             215.88,350.00 236.63,266.00 236.63,266.00
             236.63,266.00 247.00,224.00 247.00,224.00
             242.73,221.99 232.16,216.59 228.00,216.30
             224.27,216.03 214.15,219.42 210.00,220.58
             210.00,220.58 175.00,230.29 175.00,230.29
             172.28,231.07 162.17,234.21 160.04,234.06
             157.39,233.86 155.40,231.89 156.40,229.15
             157.32,226.64 168.32,217.84 171.00,215.59
             171.00,215.59 199.00,191.92 199.00,191.92
             202.68,188.84 210.83,182.65 213.16,178.99
             214.78,176.45 217.23,168.30 218.33,165.00
             218.33,165.00 227.00,139.00 227.00,139.00
             227.00,139.00 255.00,55.00 255.00,55.00
             255.00,55.00 241.00,55.00 241.00,55.00
             241.00,55.00 226.00,54.00 226.00,54.00
             197.17,53.96 160.66,50.03 132.00,45.58
             132.00,45.58 93.00,38.58 93.00,38.58
             93.00,38.58 66.00,33.00 66.00,33.00
             68.29,38.40 72.17,42.95 75.14,48.00
             80.55,57.21 85.27,66.96 88.95,77.00
             99.98,107.09 105.86,138.11 108.09,170.00
             108.09,170.00 109.00,182.00 109.00,182.00
             109.00,182.00 109.00,224.00 109.00,224.00
             109.00,224.00 108.09,234.00 108.09,234.00
             106.72,253.63 103.75,272.81 99.35,292.00
             99.35,292.00 92.53,318.00 92.53,318.00
             92.48,320.43 93.50,322.80 94.43,325.00
             97.75,332.88 103.37,342.60 107.80,350.00
             134.95,395.33 174.37,430.58 218.00,459.67
             218.00,459.67 253.00,481.80 253.00,481.80
             256.06,483.63 264.88,489.24 268.00,489.34
             271.24,489.44 279.89,484.20 283.00,482.42
             283.00,482.42 318.00,461.33 318.00,461.33
             356.97,435.48 389.50,408.32 415.67,369.00
             421.72,359.90 432.71,340.98 436.38,331.00
             438.69,324.69 436.35,321.05 434.33,315.00
             434.33,315.00 428.37,294.00 428.37,294.00
             423.67,274.92 420.43,254.60 419.00,235.00
             419.00,235.00 419.00,226.00 419.00,226.00
             419.00,226.00 418.00,214.00 418.00,214.00
             418.00,214.00 418.00,191.00 418.00,191.00
             418.00,191.00 418.96,178.00 418.96,178.00
             420.73,137.29 428.73,96.01 446.32,59.00
             450.92,49.31 457.32,40.99 463.00,32.00 Z" />
</svg>
