<?xml version="1.0" encoding="UTF-8" standalone="no"?>
<!DOCTYPE svg PUBLIC "-//W3C//DTD SVG 20010904//EN"
              "http://www.w3.org/TR/2001/REC-SVG-20010904/DTD/svg10.dtd">

<svg xmlns="http://www.w3.org/2000/svg"
     width="0.213333in" height="0.213333in"
     viewBox="0 0 64 64">
  <path id="Selection #4"
        fill="none" stroke="black" stroke-width="1"
        d="M 0.00,0.00
           C 0.00,0.00 64.00,0.00 64.00,0.00
             64.00,0.00 64.00,64.00 64.00,64.00
             64.00,64.00 0.00,64.00 0.00,64.00
             0.00,64.00 0.00,0.00 0.00,0.00 Z
           M 27.00,1.00
           C 27.00,1.00 1.00,1.00 1.00,1.00
             1.00,1.00 1.00,27.00 1.00,27.00
             1.00,27.00 27.00,27.00 27.00,27.00
             27.00,27.00 27.00,1.00 27.00,1.00 Z
           M 34.00,1.00
           C 34.00,1.00 29.00,1.00 29.00,1.00
             29.00,1.00 29.00,27.00 29.00,27.00
             29.00,27.00 34.00,27.00 34.00,27.00
             34.00,27.00 34.00,1.00 34.00,1.00 Z
           M 63.00,1.00
           C 63.00,1.00 36.00,1.00 36.00,1.00
             36.00,1.00 36.00,27.00 36.00,27.00
             36.00,27.00 63.00,27.00 63.00,27.00
             63.00,27.00 63.00,1.00 63.00,1.00 Z
           M 27.00,29.00
           C 27.00,29.00 1.00,29.00 1.00,29.00
             1.00,29.00 1.00,34.00 1.00,34.00
             1.00,34.00 27.00,34.00 27.00,34.00
             27.00,34.00 27.00,29.00 27.00,29.00 Z
           M 34.00,29.00
           C 34.00,29.00 29.00,29.00 29.00,29.00
             29.00,29.00 29.00,34.00 29.00,34.00
             29.00,34.00 34.00,34.00 34.00,34.00
             34.00,34.00 34.00,29.00 34.00,29.00 Z
           M 63.00,29.00
           C 63.00,29.00 36.00,29.00 36.00,29.00
             36.00,29.00 36.00,34.00 36.00,34.00
             36.00,34.00 63.00,34.00 63.00,34.00
             63.00,34.00 63.00,29.00 63.00,29.00 Z
           M 27.00,36.00
           C 27.00,36.00 1.00,36.00 1.00,36.00
             1.00,36.00 1.00,63.00 1.00,63.00
             1.00,63.00 27.00,63.00 27.00,63.00
             27.00,63.00 27.00,36.00 27.00,36.00 Z
           M 34.00,36.00
           C 34.00,36.00 29.00,36.00 29.00,36.00
             29.00,36.00 29.00,63.00 29.00,63.00
             29.00,63.00 34.00,63.00 34.00,63.00
             34.00,63.00 34.00,36.00 34.00,36.00 Z
           M 63.00,36.00
           C 63.00,36.00 36.00,36.00 36.00,36.00
             36.00,36.00 36.00,63.00 36.00,63.00
             36.00,63.00 63.00,63.00 63.00,63.00
             63.00,63.00 63.00,36.00 63.00,36.00 Z" />
</svg>
